<svg xmlns="http://www.w3.org/2000/svg" version="1.1" xmlns:xlink="http://www.w3.org/1999/xlink" xmlns:svgjs="http://svgjs.com/svgjs" height="142.39453125" width="195.265625"><g id="SvgjsG1638" rel="mainfill" name="main_text" xmlns:name="mainText_mainfill" transform="translate(-1.46875,62.86328125)"><path fill="#ffffff" d="M19.404 53.70400000000001 c0.196 0 0.392 0.147 0.245 0.588 c-0.98 2.744 -3.038 4.998 -7.399 4.998 c-6.517 0 -10.78 -5.243 -10.78 -12.838 c0 -7.399 4.165 -12.593 10.241 -12.593 c5.194 0 7.938 3.185 7.987 5.929 c0 0.833 -0.882 1.911 -1.862 1.911 c-0.931 0 -1.911 -0.735 -1.862 -1.666 c0.049 -2.597 -0.882 -5.145 -3.871 -5.145 c-4.116 0 -6.86 3.92 -6.86 10.927 c0 8.477 3.479 12.348 7.154 12.348 c3.283 0 5.145 -2.107 5.635 -4.067 c0.049 -0.294 0.196 -0.392 0.441 -0.392 l0.931 0 z M33.025999999999996 33.85900000000001 c5.782 0 10.633 4.851 10.633 12.446 c0 7.987 -4.851 12.985 -10.388 12.985 c-5.782 0 -10.633 -4.998 -10.633 -12.593 c0 -7.987 4.851 -12.838 10.388 -12.838 z M39.739000000000004 47.187000000000005 c0 -7.105 -2.891 -12.299 -7.448 -12.299 c-3.577 0 -5.831 3.087 -5.831 10.829 c0 7.252 2.891 12.446 7.448 12.446 c3.528 0 5.831 -3.136 5.831 -10.976 z M79.72300000000001 56.056000000000004 c0 1.225 1.323 1.617 2.793 1.813 l0 0.931 c-2.989 -0.147 -5.978 -0.147 -8.967 0 l0 -0.931 c1.519 -0.294 2.744 -0.588 2.744 -1.813 l0 -15.092 c0 -3.479 -0.833 -5.684 -3.381 -5.684 c-3.479 0 -6.37 3.087 -7.007 4.508 l0 16.268 c0 1.225 1.323 1.519 2.842 1.813 l0 0.931 c-2.989 -0.147 -6.027 -0.147 -9.016 0 l0 -0.931 c1.568 -0.294 2.793 -0.588 2.793 -1.813 l0 -15.092 c0 -3.479 -0.882 -5.684 -3.479 -5.684 c-3.43 0 -6.272 3.087 -6.909 4.508 l0 16.268 c0 1.225 1.323 1.519 2.793 1.813 l0 0.931 c-2.989 -0.147 -5.978 -0.147 -8.967 0 l0 -0.931 c1.519 -0.196 2.744 -0.588 2.744 -1.813 l0 -17.787 c0 -1.519 -0.882 -2.009 -2.842 -1.813 l0 -0.931 c3.185 -0.441 4.606 -1.715 5.537 -1.715 c0.392 0 0.784 0.294 0.735 0.833 l-0.441 4.214 c1.029 -1.666 3.626 -5.047 8.281 -5.047 c2.94 0 5.243 1.666 5.684 5.047 c0.882 -1.715 3.528 -5.047 8.183 -5.047 c4.116 0 5.88 2.156 5.88 7.007 l0 15.239 z M103.292 53.70400000000001 c0.196 0 0.441 0.196 0.343 0.539 c-0.882 2.597 -3.528 5.047 -7.889 5.047 c-6.223 0 -11.025 -4.459 -11.025 -12.642 c0 -7.987 4.851 -12.789 10.584 -12.789 c4.655 0 9.359 3.185 9.359 10.339 c0 1.372 -0.49 2.205 -1.862 2.205 l-13.965 0 c0 7.84 3.332 11.76 7.35 11.76 c2.352 0 4.263 -1.078 5.537 -3.724 c0.196 -0.392 0.343 -0.735 0.784 -0.735 l0.784 0 z M101.13600000000001 45.423 c0 -6.566 -1.764 -10.535 -5.782 -10.535 s-6.468 4.018 -6.517 10.535 l12.299 0 z M120.148 33.761 c2.499 0 3.871 1.078 3.871 2.303 c0 1.078 -0.441 2.058 -1.764 2.058 c-2.303 0 -1.47 -2.548 -4.165 -2.548 c-2.744 0 -4.361 3.822 -4.802 4.557 l0 15.925 c0 1.225 1.421 1.617 2.695 1.813 l0 0.931 c-2.989 -0.245 -5.88 -0.245 -8.918 0 l0 -0.931 c1.568 -0.196 2.891 -0.588 2.891 -1.813 l0 -17.738 c0 -1.519 -0.882 -2.009 -2.842 -1.813 l0 -0.931 c3.185 -0.441 4.508 -1.764 5.341 -1.764 c0.49 0 0.882 0.294 0.833 0.833 l-0.735 4.606 c1.666 -2.989 3.724 -5.488 7.595 -5.488 z  M143.913 53.70400000000001 c0.196 0 0.392 0.147 0.245 0.588 c-0.98 2.744 -3.038 4.998 -7.399 4.998 c-6.517 0 -10.78 -5.243 -10.78 -12.838 c0 -7.399 4.165 -12.593 10.241 -12.593 c5.194 0 7.938 3.185 7.987 5.929 c0 0.833 -0.882 1.911 -1.862 1.911 c-0.931 0 -1.911 -0.735 -1.862 -1.666 c0.049 -2.597 -0.882 -5.145 -3.871 -5.145 c-4.116 0 -6.86 3.92 -6.86 10.927 c0 8.477 3.479 12.348 7.154 12.348 c3.283 0 5.145 -2.107 5.635 -4.067 c0.049 -0.294 0.196 -0.392 0.441 -0.392 l0.931 0 z M150.822 28.910000000000004 c-1.029 0 -1.96 -0.833 -1.96 -1.911 c0 -0.98 0.931 -1.862 1.96 -1.862 c0.98 0 1.96 0.882 1.96 1.862 c0 1.078 -0.98 1.911 -1.96 1.911 z M152.929 56.056000000000004 c0 1.225 1.323 1.617 2.793 1.813 l0 0.931 c-3.038 -0.147 -5.978 -0.147 -9.016 0 l0 -0.931 c1.568 -0.196 2.793 -0.588 2.793 -1.813 l0 -18.081 c0 -1.519 -0.882 -2.009 -2.842 -1.96 l0 -0.931 c3.234 -0.392 4.557 -1.323 5.341 -1.323 c0.686 0 1.225 0.196 1.225 1.078 c0 0.931 -0.294 2.597 -0.294 5.586 l0 15.631 z M166.992 25.382000000000005 c2.695 0 4.998 1.911 4.998 3.626 c0 1.176 -0.196 1.96 -1.764 1.96 c-3.43 0 -0.343 -4.606 -3.136 -4.606 c-3.871 0 -3.479 4.704 -3.43 7.889 l5.733 0 c0.147 0 0.343 0.147 0.343 0.294 l0 0.588 c0 0.147 -0.196 0.294 -0.343 0.294 l-5.733 0 l0 20.629 c0 1.225 1.323 1.617 2.793 1.813 l0 0.931 c-3.038 -0.147 -5.978 -0.147 -9.016 0 l0 -0.931 c1.568 -0.196 2.793 -0.588 2.793 -1.813 l0 -20.629 l-2.205 0 c-0.147 0 -0.343 -0.147 -0.343 -0.294 l0 -0.588 c0 -0.147 0.196 -0.294 0.343 -0.294 l2.205 0 c0.098 -6.321 2.548 -8.869 6.762 -8.869 z M196.735 34.251000000000005 l0 0.931 l-0.98 0.147 c-0.686 0.245 -1.911 0 -2.352 1.274 l-11.515 32.242 c-0.147 0.343 -0.196 0.686 -0.931 0.686 c-0.784 0 -1.029 -0.343 -0.882 -0.686 c0.882 -2.107 4.459 -11.025 4.459 -11.025 c0 -0.637 -5.684 -14.112 -8.477 -21.217 c-0.539 -1.274 -1.029 -1.274 -1.617 -1.274 l-1.47 -0.147 l0 -0.931 c3.332 0.147 6.909 0.147 9.506 0 l0 0.931 l-1.666 0.147 c-0.539 0 -1.617 0.049 -1.176 1.274 l6.468 17.003 l5.929 -17.003 c0.392 -1.225 -1.078 -1.176 -1.323 -1.274 l-1.176 -0.147 l0 -0.931 c2.401 0.147 4.508 0.147 7.203 0 z"/></g><defs id="SvgjsDefs1637"/><g id="SvgjsG1639" fill="#ffffff" rel="mainfill" name="symbol" xmlns:name="symbol_mainfill" transform="translate(57.518526785714286,-1.1142857142857143) scale(1.1142857142857143)"><g xmlns="http://www.w3.org/2000/svg"><path fill="#ffffff" d="M49.3,64.3l-10.4-1.4c-0.3,0-0.6-0.4-0.6-0.7V37.9c0-0.4,0.2-0.7,0.6-0.7l10.4-1.4c0.4-0.1,0.7,0.3,0.7,0.7   v27.1C50,64,49.7,64.4,49.3,64.3z"/><path fill="#ffffff" d="M70.9,25.9l-13.5-12c-0.1-0.1-0.1-0.1-0.1-0.2V4c0-0.1,0-0.2-0.1-0.2l-3.3-2.7C53.8,1,53.7,1,53.6,1L9.8,21   c-0.1,0-0.2,0.2-0.2,0.3v6c0,0.1-0.1,0.3-0.2,0.3L7.9,28c-0.1,0-0.2,0.2-0.2,0.3V33c0,0.2,0.2,0.4,0.4,0.3l45.1-15.9   c0.2-0.1,0.4,0.1,0.4,0.3l0.2,48.5c0,0.2-0.1,0.3-0.2,0.3l-17,1.8v0L1.3,57.7C1.2,57.7,1,57.8,1,58v2c0,0.1,0.1,0.3,0.2,0.3   L36.4,71l0,0L69,67.6c0.1,0,0.2-0.1,0.2-0.3v-2.4V31.7c0-0.2,0.1-0.3,0.3-0.3h1.2c0.2,0,0.3-0.1,0.3-0.3v-5   C71,26,71,25.9,70.9,25.9z"/><path fill="#ffffff" d="M36.4,27.9L36.4,27.9L36.4,27.9c-0.1-0.4-0.3-0.8-0.6-1c-0.7-0.5-1.6-0.3-2.1,0.4l-7.7,12.4   c0,0.1-0.1,0.1-0.2,0.1l-18.6,2c-0.2,0-0.4-0.3-0.2-0.5l3-4.3c0.5-0.7,0.4-1.8-0.2-2.3c-0.6-0.6-1.6-0.5-2.1,0.3l-5.6,7.8   c-0.4,0.5-0.4,1.2-0.1,1.8c0.3,0.5,0.8,0.9,1.3,0.9c0,0,0.1,0,0.1,0l7.7-0.8c0.3,0,0.5,0.2,0.5,0.5v11.3c0,0.5,0.3,1,0.8,1   l22.9,4.5c0.5,0.1,1-0.4,1-1V28.6C36.5,28.4,36.5,28.1,36.4,27.9z"/></g></g></svg>