<svg xmlns="http://www.w3.org/2000/svg" version="1.1" xmlns:xlink="http://www.w3.org/1999/xlink" xmlns:svgjs="http://svgjs.com/svgjs" height="124" width="195.7368884616428"><g id="SvgjsG1019" rel="mainfill" name="main_text" xmlns:name="mainText_mainfill" fill="#ffffff" transform="translate(83.1848898463779,33.136000633239746)"><path d="M19.448 14.079999999999998 l6.38 0 l-6.952 29.92 l-11.22 0 l-6.952 -29.92 l6.38 0 l5.192 24.64 l1.98 0 z M29.26 44 l0 -22 l5.896 0 l0 22 l-5.896 0 z M29.26 19.184 l0 -5.984 l5.896 0 l0 5.984 l-5.896 0 z M48.84 21.472 c2.552 0 7.04 0.968 7.04 0.968 l-0.176 4.664 s-3.476 -0.352 -5.148 -0.352 c-4.224 0 -5.016 1.628 -5.016 6.028 c0 4.928 0.836 6.468 5.06 6.468 c1.672 0 5.104 -0.352 5.104 -0.352 l0.176 4.708 s-4.708 0.924 -7.172 0.924 c-6.556 0 -9.152 -3.476 -9.152 -11.748 c0 -7.788 2.728 -11.308 9.284 -11.308 z M72.42399999999999 27.016 l-5.412 0 l0 9.02 c0 2.2 0 3.212 1.848 3.212 c1.232 0 3.344 -0.088 3.344 -0.088 l0.264 4.708 s-2.948 0.66 -4.488 0.66 c-5.324 0 -6.864 -2.024 -6.864 -8.36 l0 -9.152 l-2.596 0 l0 -5.016 l2.596 0 l0 -6.116 l5.896 0 l0 6.116 l5.412 0 l0 5.016 z M85.22800000000001 21.472 c7.656 0 10.12 4.708 10.12 11.484 s-2.464 11.572 -10.12 11.572 s-10.12 -4.796 -10.12 -11.572 s2.464 -11.484 10.12 -11.484 z M85.22800000000001 39.512 c3.256 0 4.136 -2.288 4.136 -6.556 s-0.88 -6.468 -4.136 -6.468 s-4.136 2.2 -4.136 6.468 s0.88 6.556 4.136 6.556 z M99.66 44 l0 -22 l5.852 0 l0 2.332 s3.696 -2.2 7.04 -2.86 l0 5.94 c-3.872 0.748 -6.996 1.848 -6.996 1.848 l0 14.74 l-5.896 0 z"/></g><defs id="SvgjsDefs1018"/><g id="SvgjsG1020" rel="mainfill" name="symbol" xmlns:name="symbol_mainfill" fill="#ffffff" transform="translate(-39.03703703703704,-11.481481481481481) scale(2.2962962962962963)"><metadata xmlns="http://www.w3.org/2000/svg"><sfw xmlns="http://ns.adobe.com/SaveForWeb/1.0/"><slices><slicesourcebounds y="-8160" x="-8165" width="16389" height="16384" bottomleftorigin="true"/></slices></sfw></metadata><g xmlns="http://www.w3.org/2000/svg"><path d="M33,13.051V10c0-1.654,1.346-3,3-3s3,1.346,3,3s1.346,3,3,3s3-1.346,3-3c0-0.552-0.447-1-1-1s-1,0.448-1,1   c0,0.551-0.448,1-1,1s-1-0.449-1-1c0-2.757-2.243-5-5-5s-5,2.243-5,5v3.051C23.195,13.569,17,20.066,17,28v16   c0,8.271,6.729,15,15,15c8.271,0,15-6.729,15-15V28C47,20.066,40.805,13.569,33,13.051z M31,25v-6h2v6H31z M45,44   c0,7.168-5.832,13-13,13c-7.168,0-13-5.832-13-13V28c0-6.831,5.298-12.436,12-12.949V17h-1c-0.552,0-1,0.448-1,1v8   c0,0.552,0.448,1,1,1h1v4h-7c-0.552,0-1,0.448-1,1s0.448,1,1,1h16c0.553,0,1-0.448,1-1s-0.447-1-1-1h-7v-4h1c0.553,0,1-0.448,1-1   v-8c0-0.552-0.447-1-1-1h-1v-1.949C39.701,15.564,45,21.169,45,28V44z"/></g></g></svg>